<?xml version="1.0" encoding="UTF-8"?>
<svg width="72px" height="72px" viewBox="0 0 72 72" version="1.1" xmlns="http://www.w3.org/2000/svg" xmlns:xlink="http://www.w3.org/1999/xlink">
    <!-- Generator: Sketch 54.1 (76490) - https://sketchapp.com -->
    <title>logo</title>
    <desc>Created with Sketch.</desc>
    <g id="Page-1" stroke="none" stroke-width="1" fill="none" fill-rule="evenodd">
        <g id="logo" fill="#FFFFFF" fill-rule="nonzero">
            <path d="M14.49609,71.36328 C14.730443,71.597756 15.0483678,71.7294936 15.37988,71.7294936 C15.7113922,71.7294936 16.029317,71.597756 16.26367,71.36328 L36.99115,50.6347 L55.4209,69.06445 C55.655253,69.298926 55.9731778,69.4306636 56.30469,69.4306636 C56.6362022,69.4306636 56.954127,69.298926 57.18848,69.06445 L69.063,57.18945 C69.297476,56.955097 69.4292136,56.6371722 69.4292136,56.30566 C69.4292136,55.9741478 69.297476,55.656223 69.063,55.42187 L50.63336,36.99176 L71.3623,16.26176 C71.596776,16.027407 71.7285136,15.7094822 71.7285136,15.37797 C71.7285136,15.0464578 71.596776,14.728533 71.3623,14.49418 L57.50391,0.63672 C57.269557,0.402243965 56.9516322,0.270506354 56.62012,0.270506354 C56.2886078,0.270506354 55.970683,0.402243965 55.73633,0.63672 L35.00812,21.366 L18.56982,4.92773 C18.4604262,4.82146882 18.3323124,4.73636931 18.19195,4.67673 C18.1455611,4.65896682 18.0981048,4.64412775 18.04986,4.6323 C17.9894678,4.60801991 17.9272377,4.58858847 17.86376,4.57419 L3.99756,2.583 C3.60748856,2.52363313 3.21262977,2.65513369 2.93604,2.93652 C2.65755352,3.21491021 2.52655341,3.60826625 2.58252,3.99804 L4.57422,17.86425 C4.58862931,17.9271318 4.60795541,17.9887848 4.63202,18.04864 C4.64405423,18.0978385 4.65922184,18.1462172 4.67743,18.19348 C4.73714553,18.3333267 4.82198343,18.4610462 4.92774,18.57031 L21.36591,35.009 L18.22474,38.15036 L18.22462,38.15042 L18.22456,38.15054 L5.90056,50.47519 L5.89995,50.47562 L5.89952,50.47623 L0.6377,55.73828 C0.403223965,55.972633 0.271486354,56.2905578 0.271486354,56.62207 C0.271486354,56.9535822 0.403223965,57.271507 0.6377,57.50586 L14.49609,71.36328 Z M66.41162,56.30566 L56.30469,66.41309 L38.75869,48.86709 L48.86584,38.7594 L66.41162,56.30566 Z M15.0365,6.69354 L6.69379,15.03654 L5.29444,5.2949 L15.0365,6.69354 Z M7.57928,17.68628 L17.686,7.5791 L33.2406,23.13367 L23.13348,33.24133 L7.57928,17.68628 Z M6.78381,53.12708 L9.96631,56.30958 C10.4546806,56.7961232 11.2447772,56.7953827 11.7322349,56.3079249 C12.2196927,55.8204672 12.2204332,55.0303706 11.73389,54.542 L8.55139,51.3595 L12.94604,46.9645 L18.61767,52.6357 C19.1060406,53.1222432 19.8961372,53.1215027 20.3835949,52.6340449 C20.8710527,52.1465872 20.8717932,51.3564906 20.38525,50.86812 L14.71356,45.1969 L19.10846,40.80182 L22.291,43.98438 C22.6065498,44.3011149 23.0672509,44.4251767 23.4991824,44.3097302 C23.9311138,44.1942837 24.2684837,43.8569138 24.3839302,43.4249824 C24.4993767,42.9930509 24.3753149,42.5323498 24.05858,42.2168 L20.876,39.03418 L25.27047,34.63953 L30.94192,40.31053 C31.2569139,40.6299583 31.7189403,40.7560691 32.1525391,40.6409705 C32.5861379,40.5258719 32.9247933,40.1872203 33.0398968,39.7536228 C33.1550003,39.3200254 33.0288947,38.8579976 32.70947,38.543 L27.038,32.87189 L31.43259,28.47699 L34.61576,31.66016 C34.9313098,31.9768949 35.3920109,32.1009567 35.8239424,31.9855102 C36.2558738,31.8700637 36.5932437,31.5326938 36.7086902,31.1007624 C36.8241367,30.6688309 36.7000749,30.2081298 36.38334,29.89258 L33.20017,26.70941 L37.595,22.31427 L43.26663,27.98633 C43.5821798,28.3030649 44.0428809,28.4271267 44.4748124,28.3116802 C44.9067438,28.1962337 45.2441137,27.8588638 45.3595602,27.4269324 C45.4750067,26.9950009 45.3509449,26.5342998 45.03421,26.21875 L39.36252,20.54663 L43.757,16.15192 L46.94041,19.33492 C47.4291435,19.819263 48.2174339,19.8174902 48.703984,19.3309539 C49.190534,18.8444176 49.1923291,18.0561272 48.708,17.56738 L45.52453,14.38427 L49.91918,9.98937 L55.5913,15.66112 C56.0796706,16.1476632 56.8697672,16.1469227 57.3572249,15.6594649 C57.8446827,15.1720072 57.8454232,14.3819106 57.35888,13.89354 L51.68671,8.2218 L56.62012,3.28808 L68.71094,15.37793 L15.37989,68.71193 L3.28906,56.62207 L6.78381,53.12708 Z" id="Shape"></path>
        </g>
    </g>
</svg>