<?xml version="1.0" encoding="UTF-8"?>
<svg width="60px" height="60px" viewBox="0 0 60 60" version="1.1" xmlns="http://www.w3.org/2000/svg" xmlns:xlink="http://www.w3.org/1999/xlink">
    <!-- Generator: Sketch 54.1 (76490) - https://sketchapp.com -->
    <title>website</title>
    <desc>Created with Sketch.</desc>
    <g id="Page-1" stroke="none" stroke-width="1" fill="none" fill-rule="evenodd">
        <g id="website" fill="#FFFFFF" fill-rule="nonzero">
            <path d="M1.98535,59.26465 L58.01465,59.26465 C58.3461779,59.2646739 58.6641342,59.1329855 58.8985598,58.8985598 C59.1329855,58.6641342 59.2646739,58.3461779 59.26465,58.01465 L59.26465,1.98535 C59.2646739,1.65382207 59.1329855,1.33586581 58.8985598,1.10144016 C58.6641342,0.867014512 58.3461779,0.735326127 58.01465,0.73535 L1.98535,0.73535 C1.65382207,0.735326127 1.33586581,0.867014512 1.10144016,1.10144016 C0.867014512,1.33586581 0.735326127,1.65382207 0.73535,1.98535 L0.73535,58.01465 C0.735326127,58.3461779 0.867014512,58.6641342 1.10144016,58.8985598 C1.33586581,59.1329855 1.65382207,59.2646739 1.98535,59.26465 Z M3.23535,56.76465 L3.23535,11.88281 L56.76465,11.88281 L56.76465,56.76465 L3.23535,56.76465 Z M56.76465,3.23535 L56.76465,9.38281 L3.23535,9.38281 L3.23535,3.23535 L56.76465,3.23535 Z" id="Shape"></path>
            <circle id="Oval" cx="7.70544" cy="6.56444" r="1.12599"></circle>
            <circle id="Oval" cx="13.77075" cy="6.56444" r="1.12599"></circle>
            <circle id="Oval" cx="19.83607" cy="6.56444" r="1.12601"></circle>
            <path d="M23.48438,36.88721 L8.95117,36.88721 C8.61964207,36.8871861 8.30168581,37.0188745 8.06726016,37.2533002 C7.83283451,37.4877258 7.70114613,37.8056821 7.70117,38.13721 L7.70117,51.709 C7.70114613,52.0405279 7.83283451,52.3584842 8.06726016,52.5929098 C8.30168581,52.8273355 8.61964207,52.9590239 8.95117,52.959 L23.48437,52.959 C23.8158979,52.9590239 24.1338542,52.8273355 24.3682798,52.5929098 C24.6027055,52.3584842 24.7343939,52.0405279 24.73437,51.709 L24.73437,38.13721 C24.7343939,37.8056838 24.6027069,37.4877291 24.3682834,37.2533037 C24.1338599,37.0188783 23.8159062,36.8871888 23.48438,36.88721 L23.48438,36.88721 Z M22.23438,50.45899 L10.20117,50.45899 L10.20117,39.38721 L22.23438,39.38721 L22.23438,50.45899 Z" id="Shape"></path>
            <path d="M23.48438,15.17822 L8.95117,15.17822 C8.61964207,15.1781961 8.30168581,15.3098845 8.06726016,15.5443102 C7.83283451,15.7787358 7.70114613,16.0966921 7.70117,16.42822 L7.70117,30 C7.70114613,30.3315279 7.83283451,30.6494842 8.06726016,30.8839098 C8.30168581,31.1183355 8.61964207,31.2500239 8.95117,31.25 L23.48437,31.25 C23.8158979,31.2500239 24.1338542,31.1183355 24.3682798,30.8839098 C24.6027055,30.6494842 24.7343939,30.3315279 24.73437,30 L24.73437,16.42822 C24.7343939,16.0966938 24.6027069,15.7787391 24.3682834,15.5443137 C24.1338599,15.3098883 23.8159062,15.1781988 23.48438,15.17822 Z M22.23438,28.75 L10.20117,28.75 L10.20117,17.67822 L22.23438,17.67822 L22.23438,28.75 Z" id="Shape"></path>
            <path d="M51.04883,37.36768 L30.4502,37.36768 C29.7598441,37.36768 29.2002,37.9273241 29.2002,38.61768 C29.2002,39.3080359 29.7598441,39.86768 30.4502,39.86768 L51.04883,39.86768 C51.7391859,39.86768 52.29883,39.3080359 52.29883,38.61768 C52.29883,37.9273241 51.7391859,37.36768 51.04883,37.36768 L51.04883,37.36768 Z" id="Path"></path>
            <path d="M51.04883,43.67285 L30.4502,43.67285 C29.7598441,43.67285 29.2002,44.2324941 29.2002,44.92285 C29.2002,45.6132059 29.7598441,46.17285 30.4502,46.17285 L51.04883,46.17285 C51.7391859,46.17285 52.29883,45.6132059 52.29883,44.92285 C52.29883,44.2324941 51.7391859,43.67285 51.04883,43.67285 Z" id="Path"></path>
            <path d="M51.04883,49.97852 L30.4502,49.97852 C29.7598441,49.97852 29.2002,50.5381641 29.2002,51.22852 C29.2002,51.9188759 29.7598441,52.47852 30.4502,52.47852 L51.04883,52.47852 C51.7391859,52.47852 52.29883,51.9188759 52.29883,51.22852 C52.29883,50.5381641 51.7391859,49.97852 51.04883,49.97852 Z" id="Path"></path>
            <path d="M51.04883,15.17822 L30.4502,15.17822 C29.7598441,15.17822 29.2002,15.7378641 29.2002,16.42822 C29.2002,17.1185759 29.7598441,17.67822 30.4502,17.67822 L51.04883,17.67822 C51.7391859,17.67822 52.29883,17.1185759 52.29883,16.42822 C52.29883,15.7378641 51.7391859,15.17822 51.04883,15.17822 L51.04883,15.17822 Z" id="Path"></path>
            <path d="M51.04883,21.4834 L30.4502,21.4834 C29.7598441,21.4834 29.2002,22.0430441 29.2002,22.7334 C29.2002,23.4237559 29.7598441,23.9834 30.4502,23.9834 L51.04883,23.9834 C51.7391859,23.9834 52.29883,23.4237559 52.29883,22.7334 C52.29883,22.0430441 51.7391859,21.4834 51.04883,21.4834 Z" id="Path"></path>
            <path d="M51.04883,27.78906 L30.4502,27.78906 C29.7598441,27.78906 29.2002,28.3487041 29.2002,29.03906 C29.2002,29.7294159 29.7598441,30.28906 30.4502,30.28906 L51.04883,30.28906 C51.7391859,30.28906 52.29883,29.7294159 52.29883,29.03906 C52.29883,28.3487041 51.7391859,27.78906 51.04883,27.78906 Z" id="Path"></path>
        </g>
    </g>
</svg>